<svg width="209" height="29" viewBox="0 0 209 29" fill="none" xmlns="http://www.w3.org/2000/svg">
<path d="M11.6552 25.1379C13.4943 25.1379 14.4138 24.4943 14.4138 23.2069V19.9655H21.0345V23.8276C21.0345 25.4368 20.2069 26.7011 18.5517 27.6207C17.0345 28.5402 15.1724 29 12.9655 29H8.34483C4.8046 29 2.32184 28.0115 0.896552 26.0345C0.436782 25.3908 0.206897 24.6552 0.206897 23.8276V5.27586C0.206897 3.71264 0.988506 2.47126 2.55172 1.55172C4.16092 0.586207 6.09195 0.103448 8.34483 0.103448H12.9655C15.1724 0.103448 17.0575 0.563218 18.6207 1.48276C20.2299 2.4023 21.0345 3.66667 21.0345 5.27586V9.13793H14.4138V5.89655C14.4138 4.6092 13.4943 3.96552 11.6552 3.96552H9.65517C7.77012 3.96552 6.82759 4.6092 6.82759 5.89655V23.2069C6.82759 24.4943 7.77012 25.1379 9.65517 25.1379H11.6552ZM37.5676 12.3103C39.4527 12.3103 40.3952 11.6667 40.3952 10.3793V5.89655C40.3952 4.6092 39.4527 3.96552 37.5676 3.96552H32.2573V12.3103H37.5676ZM39.0159 16.1724L48.5331 29H41.5676L32.2573 16.4483V29H25.6366V0.103448H38.9469C41.1538 0.103448 43.0389 0.563218 44.6021 1.48276C46.2113 2.4023 47.0159 3.66667 47.0159 5.27586V11C47.0159 12.6092 46.2343 13.8736 44.6711 14.7931C43.1078 15.7126 41.2228 16.1724 39.0159 16.1724ZM55.8939 0.103448L63.2042 10.0345L70.5835 0.103448H77.2042L66.5145 14.5172V29H59.8939V14.5172L49.2732 0.103448H55.8939ZM91.8254 12.3793C93.7105 12.3793 94.653 11.7356 94.653 10.4483V5.89655C94.653 4.6092 93.7105 3.96552 91.8254 3.96552H86.5151V12.3793H91.8254ZM79.8944 29V0.103448H93.2047C95.4116 0.103448 97.2967 0.563218 98.8599 1.48276C100.469 2.4023 101.274 3.66667 101.274 5.27586V11.069C101.274 12.6782 100.469 13.9425 98.8599 14.8621C97.2967 15.7816 95.4116 16.2414 93.2047 16.2414H86.5151V29H79.8944ZM127.572 3.96552H119.71V29H113.02V3.96552H105.158V0.103448H127.572V3.96552ZM143.529 25.1379C145.369 25.1379 146.288 24.4943 146.288 23.2069V5.89655C146.288 4.6092 145.369 3.96552 143.529 3.96552H140.495C138.61 3.96552 137.667 4.6092 137.667 5.89655V23.2069C137.667 24.4943 138.61 25.1379 140.495 25.1379H143.529ZM131.047 5.27586C131.047 3.71264 131.828 2.47126 133.392 1.55172C135.001 0.586207 136.932 0.103448 139.185 0.103448H144.84C148.38 0.103448 150.863 1.09195 152.288 3.06896C152.748 3.71264 152.978 4.44828 152.978 5.27586V23.8276C152.978 25.3908 152.173 26.6552 150.564 27.6207C149.001 28.5402 147.093 29 144.84 29H139.185C135.644 29 133.162 28.0115 131.736 26.0345C131.277 25.3908 131.047 24.6552 131.047 23.8276V5.27586ZM178.086 29H158.293V0.103448H164.914V25.1379H178.086V29ZM187.613 0.103448L194.923 10.1034L202.302 0.103448H208.923L198.302 14.5862L208.923 29H202.302L194.923 19.069L187.613 29H180.992L191.613 14.5862L180.992 0.103448H187.613Z" fill="black"/>
</svg>
